<?xml version="1.0" standalone="no"?>
<!DOCTYPE svg PUBLIC "-//W3C//DTD SVG 20010904//EN"
 "http://www.w3.org/TR/2001/REC-SVG-20010904/DTD/svg10.dtd">
<svg version="1.0" xmlns="http://www.w3.org/2000/svg"
 width="127.000000pt" height="127.000000pt" viewBox="0 0 127.000000 127.000000"
 preserveAspectRatio="xMidYMid meet">
<metadata>
Created by potrace 1.14, written by Peter Selinger 2001-2017
</metadata>
<g transform="translate(0.000000,127.000000) scale(0.100000,-0.100000)"
fill="#000000" stroke="none">
<path d="M20 635 l0 -635 615 0 615 0 0 635 0 635 -615 0 -615 0 0 -635z m805
18 l112 -313 -86 0 -87 0 -18 55 -17 56 -106 -3 -106 -3 -17 -50 -17 -50 -86
-3 -87 -3 39 108 c21 59 71 196 110 303 39 107 74 201 76 208 3 9 28 12 91 10
l87 -3 112 -312z"/>
<path d="M610 740 c-7 -25 -20 -72 -31 -105 -10 -32 -17 -61 -15 -63 2 -1 30
-2 63 0 l59 3 -32 105 -32 105 -12 -45z"/>
</g>
</svg>
